<?xml version="1.0" encoding="UTF-8"?>
<svg width="31px" height="31px" viewBox="0 0 31 31" version="1.1" xmlns="http://www.w3.org/2000/svg" xmlns:xlink="http://www.w3.org/1999/xlink">
    <!-- Generator: Sketch 61.2 (89653) - https://sketch.com -->
    <title>Group 5</title>
    <desc>Created with Sketch.</desc>
    <defs>
        <path d="M13.3242424,23 L13.3242424,15.84375 L11,15.84375 L11,13 L13.3242424,13 L13.3242424,10.759375 C13.3242424,8.325 14.7666667,7 16.8727273,7 C17.8818182,7 18.7484848,7.078125 19,7.1125 L19,9.65625 L17.5393939,9.65625 C16.3939394,9.65625 16.1727273,10.21875 16.1727273,11.040625 L16.1727273,13 L18.7575758,13 L18.4030303,15.84375 L16.1727273,15.84375 L16.1727273,23" id="path-1"></path>
    </defs>
    <g id="Desktop--🖥" stroke="none" stroke-width="1" fill="none" fill-rule="evenodd">
        <g id="MILIPOLQATAR-HOMEPAGE01" transform="translate(-1403.000000, -304.000000)">
            <g id="RS-BAR-" transform="translate(1418.000000, 293.500000) rotate(-90.000000) translate(-1418.000000, -293.500000) translate(1268.000000, 271.000000)">
                <g id="Group-27-Copy" transform="translate(7.000000, 8.000000)">
                    <g id="Group-29-Copy-2" transform="translate(117.000000, 15.000000) rotate(90.000000) translate(-117.000000, -15.000000) translate(102.000000, 0.000000)">
                        <g id="Group-5">
                            <rect id="Rectangle" fill="#040911" x="0" y="0" width="30" height="30" rx="3"></rect>
                            <mask id="mask-2" fill="white">
                                <use xlink:href="#path-1"></use>
                            </mask>
                            <use id="facebook-f" fill="#F7F8F8" xlink:href="#path-1"></use>
                        </g>
                    </g>
                </g>
            </g>
        </g>
    </g>
</svg>