<?xml version="1.0" encoding="utf-8"?>
<!-- Generator: Adobe Illustrator 24.3.0, SVG Export Plug-In . SVG Version: 6.00 Build 0)  -->
<svg version="1.1" id="Calque_1" xmlns="http://www.w3.org/2000/svg" xmlns:xlink="http://www.w3.org/1999/xlink" x="0px" y="0px"
	 viewBox="0 0 309.5 126" style="enable-background:new 0 0 309.5 126;" xml:space="preserve">
<style type="text/css">
	.st0{clip-path:url(#SVGID_2_);fill:none;stroke:#A7945D;stroke-width:1.2;stroke-linecap:square;stroke-miterlimit:10;}
	.st1{clip-path:url(#SVGID_4_);}
	.st2{clip-path:url(#SVGID_6_);fill:#A7945D;}
	.st3{clip-path:url(#SVGID_8_);}
	.st4{fill:#A7945D;}
	.st5{fill:#FFFFFF;}
</style>
<g>
	<defs>
		<rect id="SVGID_1_" x="5.7" width="300" height="126"/>
	</defs>
	<clipPath id="SVGID_2_">
		<use xlink:href="#SVGID_1_"  style="overflow:visible;"/>
	</clipPath>
	<line class="st0" x1="228.2" y1="72.8" x2="231.4" y2="76"/>
	<line class="st0" x1="228.2" y1="79.3" x2="231.4" y2="76"/>
</g>
<g>
	<defs>
		<path id="SVGID_3_" d="M289.5,116v-2.2c-0.1,0-0.1,0-0.2,0l-0.1,0c-0.4,0-0.8,0-2.5,0c-1.5,0-1.7,0-3.7,0.1
			c5.8-4.7,6.3-6.5,6.3-7.8c0-2.1-1.6-3.6-4.5-3.6c-1.6,0-3.1,0.5-3.8,1.5c-0.8,1-0.8,2-0.8,2.5h2.9c0-0.4,0.2-2,1.7-2
			c1,0,1.6,0.7,1.6,1.7c0,0.6-0.2,1-0.9,1.9c-0.7,0.9-1.4,1.5-2,2l-3.5,3.2v2.7H289.5z M272.1,113.9c-1.4,0-1.8-2.1-1.8-4.4
			c0-0.3,0-2.4,0.4-3.7c0.1-0.4,0.5-1.2,1.3-1.2c1.1,0,1.4,1.2,1.5,1.6c0.2,0.9,0.3,2.5,0.3,3.3
			C273.9,111.3,273.6,113.9,272.1,113.9z M272,116.2c4,0,4.7-4.1,4.7-7.2c0-2.5-0.5-3.8-1.2-4.8c-0.5-0.7-1.6-1.8-3.5-1.8
			c-4.3,0-4.7,5.1-4.7,6.9C267.4,112.9,268.6,116.2,272,116.2z M263.6,116v-2.2c-0.4,0-0.7,0-2.7,0.1c-1.5,0-1.7,0-3.7,0.1
			c5.8-4.7,6.3-6.5,6.3-7.8c0-2.1-1.6-3.6-4.5-3.6c-1.6,0-3.1,0.5-3.8,1.5c-0.8,1-0.8,2-0.8,2.5h2.9c0-0.4,0.2-2,1.7-2
			c1,0,1.6,0.7,1.6,1.7c0,0.6-0.2,1-0.9,1.9c-0.7,0.9-1.4,1.5-2,2l-3.5,3.2v2.7H263.6z M226.5,116v-6.1h5.3v6.1h3v-13.9h-3v5.5h-5.2
			v-5.5h-3V116H226.5z M214.2,116.3c1.3,0,2.8-0.3,4.1-1.6c1.1-1.2,1.2-2.4,1.2-3.3h-3.1c-0.1,1.8-1.2,2.6-2.5,2.6
			c-2.9,0-2.9-3.9-2.9-4.8c0-2.9,0.9-5.2,3.1-5.2c2,0,2.2,2,2.2,2.4h3c0-2.8-2.1-4.6-5.2-4.6c-3.9,0-6.4,2.9-6.4,7.3
			C207.8,112.7,209.4,116.3,214.2,116.3z M198.9,108.1l-2.5,0v-3.9h2c0.9,0,1.5,0,2,0.3c0.3,0.2,0.7,0.6,0.7,1.6
			c0,1-0.6,1.5-0.8,1.6C199.8,108.1,199.2,108.1,198.9,108.1z M196.5,116v-5.6h2.6c0.5,0,1.2,0,1.5,0.8c0.2,0.5,0.6,4.1,0.7,4.8h3.3
			c-0.2-0.2-0.3-0.4-0.4-1c-0.1-0.4-0.2-1.1-0.4-2.7c-0.2-1.8-0.4-3-2.5-3.2c0.7-0.2,2.9-0.8,2.9-3.4c0-0.9-0.3-1.9-1.2-2.7
			c-1.1-1-2.7-1-4.2-0.9h-5.3V116H196.5z M184.8,110.7h-4l2.1-5.9L184.8,110.7z M179.1,116l1-3h5.5l1,3h3l-4.8-13.9h-3.5l-5,13.9
			H179.1z M159.6,116V104l3.7,11.9h2.5l3.8-11.9V116h3v-13.9h-4.7l-3.2,10.1l-2.9-10.1h-4.9V116H159.6z"/>
	</defs>
	<clipPath id="SVGID_4_">
		<use xlink:href="#SVGID_3_"  style="overflow:visible;"/>
	</clipPath>
	<g class="st1">
		<defs>
			<rect id="SVGID_5_" x="5.7" width="300" height="126"/>
		</defs>
		<clipPath id="SVGID_6_">
			<use xlink:href="#SVGID_5_"  style="overflow:visible;"/>
		</clipPath>
		<rect x="151.9" y="97" class="st2" width="142.7" height="24.3"/>
	</g>
</g>
<g>
	<defs>
		<rect id="SVGID_7_" x="5.7" width="300" height="126"/>
	</defs>
	<clipPath id="SVGID_8_">
		<use xlink:href="#SVGID_7_"  style="overflow:visible;"/>
	</clipPath>
	<g class="st3">
		<path class="st4" d="M293.3,115.9v-2.7l3.5-3.1c0.9-0.8,1.6-1.5,2-2c0.4-0.4,0.6-0.8,0.7-1s0.2-0.6,0.2-0.9c0-0.5-0.1-0.9-0.4-1.2
			c-0.3-0.3-0.7-0.5-1.2-0.5c-0.4,0-0.7,0.1-0.9,0.2c-0.2,0.2-0.4,0.4-0.5,0.6s-0.2,0.5-0.2,0.6c0,0.2-0.1,0.3-0.1,0.5h-3
			c0-1,0.3-1.8,0.8-2.5c0.8-1,2.1-1.4,3.9-1.4c1.4,0,2.6,0.3,3.4,1s1.2,1.5,1.2,2.6c0,0.4-0.1,0.8-0.2,1.2c-0.1,0.4-0.4,0.9-0.8,1.5
			c-0.4,0.6-1.1,1.3-2,2.2s-2.1,1.8-3.5,2.9c0.5,0,1.1,0,1.8,0c0.7,0,1.4,0,1.9,0c1.7,0,2.6,0,2.8-0.1v2.2H293.3z"/>
	</g>
	<g class="st3">
		<path class="st5" d="M172.9,60.9c0-3-2.2-4.9-5.5-4.9c-3,0-4.9,1.5-4.9,3v1.6h-6.3v-3.7c0-5,6.6-7.3,11.5-7.3
			c6.6,0,12.2,4.1,12.2,11.2c0,12.7-18.2,13.5-18.2,20.3c0,0.7,0.4,1,1.4,1h11c0.7,0,1.2-0.4,1.2-1.2v-2.3h6.3v5.7
			c0,2.5-1.1,3.6-3.6,3.6h-19.6c-3.3,0-3.9-1.4-3.9-5C154.5,69.4,172.9,70.1,172.9,60.9z"/>
		<path class="st5" d="M184.5,74.1l15.6-23.8h8.2v22.3h5.8v5.9h-5.8V88h-7v-9.5h-16.8V74.1z M201.5,62.1c0-1.9,0.3-4.1,0.3-4.1h-0.1
			c0,0-1.1,2-2,3.4l-5.9,8.7c-1,1.4-1.9,2.5-1.9,2.5v0.1c0,0,1.5-0.2,3.3-0.2h6.4V62.1z"/>
	</g>
	<g class="st3">
		<path class="st5" d="M263.9,60.9c0-3-2.2-4.9-5.5-4.9c-3,0-4.9,1.5-4.9,3v1.6h-6.3v-3.7c0-5,6.6-7.3,11.5-7.3
			c6.6,0,12.2,4.1,12.2,11.2c0,12.7-18.2,13.5-18.2,20.3c0,0.7,0.4,1,1.4,1h11c0.7,0,1.2-0.4,1.2-1.2v-2.3h6.3v5.7
			c0,2.5-1.1,3.6-3.6,3.6h-19.6c-3.3,0-3.9-1.4-3.9-5C245.5,69.4,263.9,70.1,263.9,60.9z"/>
		<path class="st5" d="M276.3,71.1c0-10,5.7-21.5,17.4-21.5c4.8,0,7.8,1.6,7.8,1.6l-2,5.9c0,0-2.4-1.2-5.3-1.2
			c-5.9,0-9.1,4.9-10,10.2h0.1c1.3-1.6,4.3-2.8,7-2.8c7.4,0,12.1,5.8,12.1,12.5c0,7-4.9,12.6-12.4,12.6
			C283.1,88.6,276.3,82.3,276.3,71.1z M290.9,82.4c3.6,0,5.7-2.8,5.7-6.4c0-3.8-2.4-6.9-6.9-6.9c-3.3,0-6.2,1.8-6.2,4.1
			C283.5,77.9,286.9,82.4,290.9,82.4z"/>
	</g>
	<g class="st3">
		<defs>
			<rect id="SVGID_9_" x="8.7" y="3" width="110.1" height="119"/>
		</defs>
		<clipPath id="SVGID_10_">
			<use xlink:href="#SVGID_9_"  style="overflow:visible;"/>
		</clipPath>
		<g style="clip-path:url(#SVGID_10_);">
			
				<image style="overflow:visible;" width="1243" height="1344" xlink:href="68E521B34EE36464.png"  transform="matrix(8.854167e-02 0 0 8.854167e-02 8.7051 3)">
			</image>
		</g>
	</g>
</g>
</svg>
