<?xml version="1.0" encoding="utf-8"?>
<!-- Generator: Adobe Illustrator 24.3.0, SVG Export Plug-In . SVG Version: 6.00 Build 0)  -->
<svg version="1.1" id="Calque_1" xmlns="http://www.w3.org/2000/svg" xmlns:xlink="http://www.w3.org/1999/xlink" x="0px" y="0px"
	 viewBox="0 0 296.8 125.5" style="enable-background:new 0 0 296.8 125.5;" xml:space="preserve">
<style type="text/css">
	.st0{clip-path:url(#SVGID_2_);}
	.st1{clip-path:url(#SVGID_6_);}
	.st2{clip-path:url(#SVGID_8_);fill:#A7945D;}
	.st3{clip-path:url(#SVGID_10_);}
	.st4{fill:#A7945D;}
	.st5{font-family:'UniversLT-65Bd';}
	.st6{font-size:18.2251px;}
	.st7{fill:#0E1625;}
	.st8{font-family:'Museo-700';}
	.st9{font-size:48.5178px;}
	.st10{fill:#FFFFFF;stroke:#FFFFFF;stroke-width:1.669;stroke-miterlimit:10;}
	.st11{clip-path:url(#SVGID_10_);fill:none;stroke:#A7945D;stroke-linecap:square;stroke-miterlimit:10;}
	.st12{clip-path:url(#SVGID_10_);fill:none;stroke:#A7945D;stroke-width:1;stroke-linecap:square;stroke-miterlimit:10;}
</style>
<g>
	<defs>
		<rect id="SVGID_1_" x="1.1" y="2.5" width="293" height="119"/>
	</defs>
	<clipPath id="SVGID_2_">
		<use xlink:href="#SVGID_1_"  style="overflow:visible;"/>
	</clipPath>
	<g class="st0">
		<defs>
			<rect id="SVGID_3_" x="1.1" y="2.5" width="110" height="119"/>
		</defs>
		<clipPath id="SVGID_4_">
			<use xlink:href="#SVGID_3_"  style="overflow:visible;"/>
		</clipPath>
		<g style="clip-path:url(#SVGID_4_);">
			
				<image style="overflow:visible;" width="298" height="322" xlink:href="E4486BD34E961139.png"  transform="matrix(0.3691 0 0 0.3696 1.0966 2.4882)">
			</image>
		</g>
	</g>
</g>
<g>
	<defs>
		<path id="SVGID_5_" d="M280.2,113.2v-2.1c0,0-0.1,0-0.1,0l-0.1,0c-0.3,0-0.8,0-2.3,0c-1.4,0-1.6,0-3.4,0.1c5.4-4.3,5.9-6,5.9-7.3
			c0-1.9-1.5-3.4-4.2-3.4c-1.5,0-2.8,0.5-3.5,1.4c-0.7,0.9-0.7,1.8-0.7,2.3h2.7c0-0.4,0.1-1.8,1.6-1.8c0.9,0,1.5,0.6,1.5,1.6
			c0,0.6-0.2,1-0.9,1.8c-0.7,0.8-1.3,1.4-1.9,1.9l-3.2,2.9v2.5H280.2z M264,111.3c-1.3,0-1.7-2-1.7-4.1c0-0.3,0-2.2,0.4-3.5
			c0.1-0.4,0.5-1.1,1.2-1.1c1,0,1.3,1.1,1.4,1.4c0.2,0.8,0.3,2.3,0.3,3.1C265.7,108.8,265.4,111.3,264,111.3z M263.9,113.4
			c3.7,0,4.4-3.8,4.4-6.7c0-2.3-0.5-3.6-1.1-4.5c-0.5-0.7-1.5-1.6-3.2-1.6c-4,0-4.3,4.8-4.3,6.4
			C259.6,110.3,260.7,113.4,263.9,113.4z M256.1,113.2v-2.1c-0.4,0-0.6,0-2.5,0.1c-1.4,0-1.6,0-3.4,0.1c5.4-4.3,5.9-6,5.9-7.3
			c0-1.9-1.5-3.4-4.2-3.4c-1.5,0-2.8,0.5-3.5,1.4c-0.7,0.9-0.7,1.8-0.7,2.3h2.7c0-0.4,0.1-1.8,1.6-1.8c0.9,0,1.5,0.6,1.5,1.6
			c0,0.6-0.2,1-0.9,1.8c-0.7,0.8-1.3,1.4-1.9,1.9l-3.2,2.9v2.5H256.1z M221.7,113.2v-5.7h4.9v5.7h2.8v-12.9h-2.8v5.2h-4.9v-5.2H219
			v12.9H221.7z M210.3,113.5c1.2,0,2.6-0.3,3.8-1.4c1-1.1,1.1-2.3,1.2-3h-2.9c-0.1,1.7-1.2,2.4-2.3,2.4c-2.7,0-2.7-3.7-2.7-4.4
			c0-2.7,0.9-4.8,2.9-4.8c1.9,0,2,1.8,2.1,2.3h2.8c0-2.6-2-4.3-4.8-4.3c-3.6,0-5.9,2.7-5.9,6.8C204.4,110.2,205.8,113.5,210.3,113.5
			z M196.1,105.9l-2.3,0v-3.6h1.9c0.9,0,1.4,0,1.8,0.3c0.2,0.2,0.7,0.6,0.7,1.4c0,0.9-0.5,1.4-0.7,1.5
			C197,105.9,196.4,105.9,196.1,105.9z M193.8,113.2V108h2.4c0.5,0,1.1,0,1.4,0.7c0.2,0.5,0.6,3.8,0.7,4.5h3
			c-0.1-0.2-0.2-0.4-0.4-0.9c-0.1-0.4-0.2-1-0.4-2.5c-0.2-1.7-0.4-2.8-2.3-3c0.6-0.2,2.7-0.7,2.7-3.2c0-0.8-0.3-1.8-1.1-2.5
			c-1-0.9-2.5-0.9-3.9-0.9H191v12.9H193.8z M183.1,108.3h-3.7l1.9-5.5L183.1,108.3z M177.7,113.2l1-2.8h5.1l0.9,2.8h2.8l-4.5-12.9
			h-3.3l-4.6,12.9H177.7z M159.7,113.2v-11.1l3.4,11.1h2.3l3.5-11.1v11.1h2.7v-12.9h-4.4l-2.9,9.4l-2.7-9.4h-4.5v12.9H159.7z"/>
	</defs>
	<clipPath id="SVGID_6_">
		<use xlink:href="#SVGID_5_"  style="overflow:visible;"/>
	</clipPath>
	<g class="st1">
		<defs>
			<rect id="SVGID_7_" x="0.1" y="2.5" width="293" height="119"/>
		</defs>
		<clipPath id="SVGID_8_">
			<use xlink:href="#SVGID_7_"  style="overflow:visible;"/>
		</clipPath>
		<rect x="152.1" y="95.2" class="st2" width="133.1" height="23.3"/>
	</g>
</g>
<g>
	<defs>
		<rect id="SVGID_9_" x="0.1" y="2.5" width="293" height="119"/>
	</defs>
	<clipPath id="SVGID_10_">
		<use xlink:href="#SVGID_9_"  style="overflow:visible;"/>
	</clipPath>
	<g class="st3">
		<text transform="matrix(1 0 0 1 283.1237 113.4882)" class="st4 st5 st6">2</text>
	</g>
	<g class="st3">
		<text transform="matrix(1 0 0 1 155.0966 85.4882)" class="st7 st8 st9">24  26</text>
	</g>
	<g class="st3">
		<text transform="matrix(1 0 0 1 155.0966 85.4882)" class="st10 st8 st9">24  26</text>
	</g>
	<line class="st11" x1="224.6" y1="77" x2="227.6" y2="74"/>
	<line class="st12" x1="224.5" y1="71" x2="227.6" y2="73.9"/>
</g>
</svg>
